# xmcd CD database file
#
# Track frame offsets:
#	150
#	32330
#	72627
#	112970
#	156815
#	201410
#	240730
#	273285
#	306065
#
# Disc length: 4711 seconds
#
# Revision: 3
# Processed by: cddbd v1.5.2PL0 Copyright (c) Steve Scherf et al.
# Submitted via: CDex 1.51
#
DISCID=77126509
DTITLE=Harper Lee - To Kill A Mockingbird - Disc 1
DYEAR=2006
DGENRE=Audiobook
TTITLE0=HarperAudio Presents To Kill A Mockingbird
TTITLE1=Maycomb Was An Old Town
TTITLE2=The Radley Place Jutted
TTITLE3=My Memory Came Alive
TTITLE4=Two
TTITLE5=Everybody Who Goes
TTITLE6=Three
TTITLE7=The Male Population
TTITLE8=When I Passed The Radley Place
EXTD=YEAR: 2006
EXTT0=
EXTT1=
EXTT2=
EXTT3=
EXTT4=
EXTT5=
EXTT6=
EXTT7=
EXTT8=
PLAYORDER=
